<svg width="110" height="36" viewBox="0 0 110 36" fill="none" xmlns="http://www.w3.org/2000/svg">
<path d="M0 0H5.18899V17.3766L12.0946 7.20779H18.298L10.5731 17.7662L19.5465 28.7922H12.5628L7.52989 21.935L5.18899 25.1299V28.7922H0V0Z" fill="black"/>
<path d="M17.4787 18.0779C17.4787 16.4416 17.7518 14.9351 18.298 13.5585C18.8442 12.1559 19.5985 10.9481 20.5609 9.93508C21.5493 8.9221 22.7197 8.12989 24.0722 7.55846C25.4248 6.98703 26.8943 6.70132 28.4809 6.70132C30.0415 6.70132 31.381 6.97405 32.4995 7.5195C33.6179 8.03898 34.6323 8.89612 35.5426 10.0909V7.20781H40.3025V28.7922H35.5426V25.987C34.5022 27.1818 33.4228 28.039 32.3044 28.5584C31.212 29.052 29.8985 29.2987 28.3639 29.2987C26.7773 29.2987 25.3207 29.026 23.9942 28.4805C22.6677 27.9091 21.5233 27.1299 20.5609 26.1429C19.5985 25.1299 18.8442 23.9481 18.298 22.5974C17.7518 21.2208 17.4787 19.7143 17.4787 18.0779ZM22.7067 18.1948C22.7067 19.1299 22.8628 19.987 23.1749 20.7662C23.487 21.5455 23.9162 22.2208 24.4624 22.7922C25.0346 23.3377 25.7109 23.7662 26.4912 24.0779C27.2975 24.3896 28.1688 24.5455 29.1052 24.5455C30.0415 24.5455 30.8868 24.3896 31.6411 24.0779C32.4214 23.7662 33.0847 23.3247 33.6309 22.7533C34.2031 22.1818 34.6323 21.5065 34.9184 20.7273C35.2305 19.9221 35.3866 19.039 35.3866 18.0779C35.3866 17.0909 35.2305 16.1948 34.9184 15.3896C34.6063 14.5844 34.1641 13.8961 33.5919 13.3247C33.0197 12.7273 32.3304 12.2727 31.5241 11.9611C30.7438 11.6234 29.8855 11.4546 28.9491 11.4546C28.0388 11.4546 27.1934 11.6234 26.4131 11.9611C25.6588 12.2987 25.0086 12.7662 24.4624 13.3637C23.9162 13.9611 23.487 14.6753 23.1749 15.5065C22.8628 16.3117 22.7067 17.2078 22.7067 18.1948Z" fill="black"/>
<path d="M42.2876 17.9611C42.2876 16.3507 42.5607 14.8442 43.1069 13.4416C43.6791 12.039 44.4464 10.8182 45.4088 9.77924C46.3972 8.74028 47.5416 7.9221 48.8421 7.3247C50.1686 6.72729 51.5861 6.42859 53.0947 6.42859C54.4472 6.42859 55.7217 6.67535 56.9182 7.16885C58.1146 7.63638 59.09 8.28574 59.8443 9.1169V2.64221e-05H65.0333V28.7922H60.2735V25.987C59.2071 27.1559 58.1146 28 56.9962 28.5195C55.9038 29.039 54.6163 29.2987 53.1337 29.2987C51.5991 29.2987 50.1686 29.013 48.8421 28.4416C47.5416 27.8442 46.3972 27.039 45.4088 26.026C44.4464 25.013 43.6791 23.8182 43.1069 22.4416C42.5607 21.0649 42.2876 19.5714 42.2876 17.9611ZM47.5156 17.8052C47.5156 18.7403 47.6846 19.6234 48.0228 20.4546C48.3609 21.2857 48.8161 22 49.3883 22.5974C49.9605 23.1948 50.6368 23.6753 51.4171 24.039C52.2234 24.3766 53.0687 24.5455 53.9531 24.5455C54.8374 24.5455 55.6567 24.3766 56.411 24.039C57.1913 23.7013 57.8545 23.2338 58.4008 22.6364C58.973 22.039 59.4151 21.3377 59.7273 20.5325C60.0654 19.7273 60.2345 18.8572 60.2345 17.9221C60.2345 16.9351 60.0654 16.039 59.7273 15.2338C59.4151 14.4026 58.973 13.6883 58.4008 13.0909C57.8285 12.4935 57.1393 12.026 56.333 11.6883C55.5527 11.3507 54.6943 11.1818 53.758 11.1818C52.8736 11.1818 52.0543 11.3507 51.3 11.6883C50.5457 12.026 49.8825 12.4935 49.3103 13.0909C48.7641 13.6883 48.3219 14.3896 47.9838 15.1948C47.6716 16 47.5156 16.8701 47.5156 17.8052Z" fill="black"/>
<path d="M68.4681 7.20781H73.228V9.31171C73.5921 8.79223 73.9302 8.36366 74.2424 8.02599C74.5545 7.68833 74.9056 7.42859 75.2958 7.24677C75.6859 7.03898 76.1151 6.89612 76.5833 6.8182C77.0774 6.74028 77.6497 6.70132 78.2999 6.70132V11.6883C75.2047 11.6883 73.6571 13.3896 73.6571 16.7922V28.7922H68.4681V7.20781Z" fill="black"/>
<path d="M80.9993 2.64221e-05H86.1883V28.7922H80.9993V2.64221e-05Z" fill="black"/>
<path d="M95.9936 26.7662L88.0736 7.20781H94.0039L98.8027 21.1948L104.031 7.20781H110L97.5152 36H91.9361L95.9936 26.7662Z" fill="black"/>
</svg>
